<svg width="16" height="16" viewBox="0 0 16 16" fill="none" xmlns="http://www.w3.org/2000/svg">
<path d="M15.9863 13.5706C15.9323 9.12281 12.0982 5.50053 7.32737 5.33875V2.99997C7.32737 2.44856 6.87919 2 6.32819 2C6.08034 2 5.84097 2.09506 5.65556 2.26756C5.65556 2.26756 1.44219 6.16847 0.230281 7.38491C0.0819688 7.53466 0 7.75275 0 7.99981C0 8.24688 0.0819688 8.46497 0.230281 8.61503C1.44219 9.83113 5.65556 13.7321 5.65556 13.7321C5.84097 13.9046 6.08034 13.9996 6.32819 13.9996C6.87916 13.9996 7.32737 13.5511 7.32737 12.9997V10.6687C12.1236 10.7361 15.3209 12.25 15.3209 13.6663C15.3209 13.8506 15.4698 13.9996 15.6539 13.9996C15.6592 14.0003 15.6643 13.9999 15.6669 13.9996C15.851 13.9996 16 13.8505 16 13.6663C16 13.6331 15.9954 13.6009 15.9863 13.5706Z" fill="#44566C"/>
</svg>
