<svg width="16" height="16" viewBox="0 0 16 16" fill="none" xmlns="http://www.w3.org/2000/svg">
<path fill-rule="evenodd" clip-rule="evenodd" d="M8.00001 0.35C5.70802 0.35 3.85001 2.20802 3.85001 4.5C3.85001 6.79198 5.70802 8.65 8.00001 8.65C10.292 8.65 12.15 6.79198 12.15 4.5C12.15 2.20802 10.292 0.35 8.00001 0.35ZM5.15001 4.5C5.15001 2.92599 6.42599 1.65 8.00001 1.65C9.57402 1.65 10.85 2.92599 10.85 4.5C10.85 6.07401 9.57402 7.35 8.00001 7.35C6.42599 7.35 5.15001 6.07401 5.15001 4.5Z" fill="#44566C"/>
<path fill-rule="evenodd" clip-rule="evenodd" d="M7.49673 9.48191C7.06619 9.3673 6.12588 9.18337 5.27526 9.66607L2.94037 10.991C2.27597 11.3681 1.85001 12.0594 1.85001 12.8259V13.5183C1.85001 14.7311 2.8812 15.65 4.07143 15.65H11.9286C13.1188 15.65 14.15 14.7311 14.15 13.5183V12.8259C14.15 12.0594 13.724 11.3681 13.0596 10.991L10.7248 9.66607C9.87414 9.18338 8.93383 9.3673 8.50328 9.48191C8.19095 9.56492 7.80906 9.56492 7.49673 9.48191ZM5.91686 10.7967C6.29602 10.5815 6.79418 10.6401 7.16252 10.7382L7.17653 10.7419C7.70448 10.8795 8.31062 10.8782 8.8372 10.7383C9.20554 10.6402 9.70398 10.5815 10.0832 10.7967L12.418 12.1217C12.6981 12.2807 12.85 12.5528 12.85 12.8259V13.5183C12.85 13.9422 12.474 14.35 11.9286 14.35H4.07143C3.52604 14.35 3.15001 13.9422 3.15001 13.5183V12.8259C3.15001 12.5528 3.30184 12.2807 3.58196 12.1217L5.91686 10.7967Z" fill="#44566C"/>
<path fill-rule="evenodd" clip-rule="evenodd" d="M8.00001 0.35C5.70802 0.35 3.85001 2.20802 3.85001 4.5C3.85001 6.79198 5.70802 8.65 8.00001 8.65C10.292 8.65 12.15 6.79198 12.15 4.5C12.15 2.20802 10.292 0.35 8.00001 0.35ZM5.15001 4.5C5.15001 2.92599 6.42599 1.65 8.00001 1.65C9.57402 1.65 10.85 2.92599 10.85 4.5C10.85 6.07401 9.57402 7.35 8.00001 7.35C6.42599 7.35 5.15001 6.07401 5.15001 4.5Z" stroke="#44566C"/>
<path fill-rule="evenodd" clip-rule="evenodd" d="M7.49673 9.48191C7.06619 9.3673 6.12588 9.18337 5.27526 9.66607L2.94037 10.991C2.27597 11.3681 1.85001 12.0594 1.85001 12.8259V13.5183C1.85001 14.7311 2.8812 15.65 4.07143 15.65H11.9286C13.1188 15.65 14.15 14.7311 14.15 13.5183V12.8259C14.15 12.0594 13.724 11.3681 13.0596 10.991L10.7248 9.66607C9.87414 9.18338 8.93383 9.3673 8.50328 9.48191C8.19095 9.56492 7.80906 9.56492 7.49673 9.48191ZM5.91686 10.7967C6.29602 10.5815 6.79418 10.6401 7.16252 10.7382L7.17653 10.7419C7.70448 10.8795 8.31062 10.8782 8.8372 10.7383C9.20554 10.6402 9.70398 10.5815 10.0832 10.7967L12.418 12.1217C12.6981 12.2807 12.85 12.5528 12.85 12.8259V13.5183C12.85 13.9422 12.474 14.35 11.9286 14.35H4.07143C3.52604 14.35 3.15001 13.9422 3.15001 13.5183V12.8259C3.15001 12.5528 3.30184 12.2807 3.58196 12.1217L5.91686 10.7967Z" stroke="#44566C"/>
</svg>
