<svg width="16" height="16" viewBox="0 0 16 16" fill="none" xmlns="http://www.w3.org/2000/svg">
<path d="M11.8417 9.8131C11.8417 10.514 12.0408 10.7935 12.5617 10.7935C13.7225 10.7935 14.4617 9.31247 14.4617 6.84939C14.4617 3.08469 11.7217 1.28244 8.30083 1.28244C4.78167 1.28244 1.58083 3.64539 1.58083 8.11097C1.58083 12.3763 4.38083 14.6992 8.68083 14.6992C10.1408 14.6992 11.1208 14.539 12.62 14.0384L12.9417 15.3792C11.4617 15.8607 9.88 16 8.66083 16C3.02083 16 0 12.8961 0 8.11014C0 3.2841 3.50083 0 8.32083 0C13.3408 0 16 3.00375 16 6.68836C16 9.81226 15.0208 12.1952 11.9408 12.1952C10.54 12.1952 9.62083 11.6345 9.50083 10.3922C9.14083 11.7739 8.18083 12.1952 6.88 12.1952C5.14 12.1952 3.68 10.8527 3.68 8.15019C3.68 5.42678 4.96083 3.74468 7.26083 3.74468C8.48083 3.74468 9.24083 4.22528 9.57917 4.98623L10.16 3.92491H11.84V9.8131H11.8417V9.8131ZM9.3825 7.16979C9.3825 6.06925 8.56167 5.60784 7.88167 5.60784C7.14167 5.60784 6.3225 6.20776 6.3225 7.9708C6.3225 9.37255 6.9425 10.1535 7.88167 10.1535C8.54167 10.1535 9.3825 9.733 9.3825 8.57155V7.16979Z" fill="#44566C"/>
</svg>
