<svg width="16" height="16" viewBox="0 0 16 16" fill="none" xmlns="http://www.w3.org/2000/svg">
<path d="M1.63738 12.3725C1.56697 12.0205 1.22454 11.7922 0.872525 11.8626C0.520511 11.933 0.29222 12.2755 0.362623 12.6275L1.63738 12.3725ZM1.5 15L0.862623 15.1275C0.923388 15.4313 1.19016 15.65 1.5 15.65L1.5 15ZM14.5 15V15.65C14.8098 15.65 15.0766 15.4313 15.1374 15.1275L14.5 15ZM15.6374 12.6275C15.7078 12.2755 15.4795 11.933 15.1275 11.8626C14.7755 11.7922 14.433 12.0205 14.3626 12.3725L15.6374 12.6275ZM8 12L7.58388 12.4993C7.82493 12.7002 8.17507 12.7002 8.41612 12.4993L8 12ZM8.65 1C8.65 0.641015 8.35899 0.35 8 0.35C7.64101 0.35 7.35 0.641015 7.35 1H8.65ZM5.41612 9.00066C5.14034 8.77084 4.73047 8.8081 4.50066 9.08388C4.27084 9.35966 4.3081 9.76953 4.58388 9.99934L5.41612 9.00066ZM11.4161 9.99934C11.6919 9.76953 11.7292 9.35966 11.4993 9.08388C11.2695 8.8081 10.8597 8.77084 10.5839 9.00066L11.4161 9.99934ZM0.362623 12.6275L0.862623 15.1275L2.13738 14.8725L1.63738 12.3725L0.362623 12.6275ZM1.5 15.65H14.5V14.35H1.5V15.65ZM15.1374 15.1275L15.6374 12.6275L14.3626 12.3725L13.8626 14.8725L15.1374 15.1275ZM8.65 12V1H7.35V12H8.65ZM8.41612 11.5007L5.41612 9.00066L4.58388 9.99934L7.58388 12.4993L8.41612 11.5007ZM8.41612 12.4993L11.4161 9.99934L10.5839 9.00066L7.58388 11.5007L8.41612 12.4993Z" fill="#44566C"/>
</svg>
