<svg width="16" height="16" viewBox="0 0 16 16" fill="none" xmlns="http://www.w3.org/2000/svg">
<path d="M13.8524 3.40426L14.2836 2.91788L14.2834 2.91773L13.8524 3.40426ZM8.9241 3.40426L8.49306 2.91773L8.49291 2.91787L8.9241 3.40426ZM8.00031 4.22323L7.56932 4.70981L8.0005 5.09172L8.4315 4.70962L8.00031 4.22323ZM7.07569 3.40426L6.64466 3.89078L6.64471 3.89083L7.07569 3.40426ZM2.14823 3.40426L1.7172 2.91773L1.71702 2.91789L2.14823 3.40426ZM2.14823 8.3134L2.57936 7.82696L2.57931 7.82691L2.14823 8.3134ZM8.00031 13.5L7.56918 13.9864L8.00031 14.3685L8.43143 13.9864L8.00031 13.5ZM13.8524 8.3134L14.2835 8.79985L14.2836 8.79978L13.8524 8.3134ZM14.2834 2.91773C12.6765 1.49409 10.1 1.49409 8.49306 2.91773L9.35514 3.89078C10.47 2.90307 12.3065 2.90307 13.4213 3.89078L14.2834 2.91773ZM8.49291 2.91787L7.56911 3.73685L8.4315 4.70962L9.3553 3.89064L8.49291 2.91787ZM8.43129 3.73666L7.50668 2.91768L6.64471 3.89083L7.56932 4.70981L8.43129 3.73666ZM7.50673 2.91773C5.89984 1.49409 3.32409 1.49409 1.7172 2.91773L2.57927 3.89078C3.69412 2.90307 5.52981 2.90307 6.64466 3.89078L7.50673 2.91773ZM1.71702 2.91789C-0.105589 4.53381 -0.105805 7.18459 1.71716 8.7999L2.57931 7.82691C1.34031 6.72906 1.3401 4.98943 2.57945 3.89062L1.71702 2.91789ZM1.71711 8.79985L7.56918 13.9864L8.43143 13.0136L2.57936 7.82696L1.71711 8.79985ZM8.43143 13.9864L14.2835 8.79985L13.4212 7.82696L7.56918 13.0136L8.43143 13.9864ZM14.2836 8.79978C16.1055 7.18457 16.1055 4.53309 14.2836 2.91788L13.4212 3.89063C14.6596 4.98858 14.6596 6.72908 13.4212 7.82703L14.2836 8.79978Z" fill="#44566C"/>
</svg>
