<svg width="16" height="16" viewBox="0 0 16 16" fill="none" xmlns="http://www.w3.org/2000/svg">
<path d="M13.862 0.121085L0.95415 5.45832C0.410345 5.68315 0.0463201 6.1875 0.00407385 6.77441C-0.0381282 7.36137 0.249972 7.91261 0.755971 8.21297L4.45534 10.2884C5.02155 9.72216 9.39037 6.60964 9.39037 6.60964C9.39037 6.60964 6.27785 10.9785 5.71165 11.5447L7.78701 15.244C8.08739 15.75 8.63862 16.0382 9.22558 15.9959C9.81368 15.9536 10.3172 15.5886 10.5417 15.0458L15.8789 2.13795C16.1219 1.55026 15.9935 0.905842 15.5438 0.456156C15.0942 0.00647062 14.4497 -0.121967 13.862 0.121085Z" fill="#44566C"/>
</svg>
