<svg width="120" height="15" viewBox="0 0 120 15" fill="none" xmlns="http://www.w3.org/2000/svg">
<path d="M11.3199 11.6436L4.66716 11.6436L3.39802 14.7514L6.98459e-06 14.7514L6.38663 0.248613L9.66183 0.248613L16.0689 14.7514L12.589 14.7514L11.3199 11.6436ZM10.2759 9.0953L8.00377 3.54281L5.7316 9.0953L10.2759 9.0953Z" fill="#FFB951"/>
<path d="M28.7322 14.7514L25.9687 10.7113L22.9187 10.7113L22.9187 14.7514L19.6026 14.7514L19.6026 0.248614L25.805 0.248614C27.0741 0.248614 28.1727 0.462703 29.1006 0.89088C30.0423 1.31906 30.7655 1.92679 31.2705 2.71408C31.7754 3.50138 32.0278 4.4337 32.0278 5.51105C32.0278 6.58839 31.7686 7.52071 31.25 8.30801C30.7451 9.08149 30.0218 9.67541 29.0802 10.0898L32.294 14.7514L28.7322 14.7514ZM28.6708 5.51105C28.6708 4.69613 28.4115 4.07458 27.8929 3.6464C27.3743 3.20442 26.617 2.98342 25.6208 2.98342L22.9187 2.98342L22.9187 8.03867L25.6208 8.03867C26.617 8.03867 27.3743 7.81768 27.8929 7.37569C28.4115 6.9337 28.6708 6.31215 28.6708 5.51105Z" fill="#FFB951"/>
<path d="M43.5596 15C42.0995 15 40.7757 14.6823 39.5885 14.047C38.4149 13.3978 37.4869 12.5069 36.8045 11.3743C36.1359 10.2279 35.8015 8.93646 35.8015 7.5C35.8015 6.06353 36.1359 4.779 36.8046 3.6464C37.4869 2.5 38.4149 1.60911 39.5885 0.973753C40.7757 0.324582 42.1063 -3.40484e-06 43.5801 -3.34042e-06C44.822 -3.28614e-06 45.941 0.220991 46.9372 0.66298C47.947 1.10497 48.7931 1.74033 49.4755 2.56906L47.3466 4.55801C46.3777 3.42541 45.1768 2.85911 43.7439 2.85911C42.8568 2.85911 42.0653 3.05939 41.3694 3.45994C40.6734 3.84668 40.1275 4.39226 39.7318 5.09668C39.3496 5.8011 39.1586 6.60221 39.1586 7.5C39.1586 8.39779 39.3496 9.19889 39.7318 9.90331C40.1275 10.6077 40.6734 11.1602 41.3694 11.5608C42.0653 11.9475 42.8568 12.1409 43.7439 12.1409C45.1768 12.1409 46.3777 11.5677 47.3466 10.4213L49.4755 12.4102C48.7931 13.2528 47.947 13.895 46.9372 14.337C45.9273 14.779 44.8015 15 43.5596 15Z" fill="#FFB951"/>
<path d="M53.7619 0.248615L60.2713 0.248615C61.827 0.248615 63.1985 0.552483 64.3858 1.16022C65.5867 1.75414 66.5147 2.59668 67.1697 3.68784C67.8384 4.779 68.1727 6.04972 68.1727 7.5C68.1727 8.95027 67.8384 10.221 67.1697 11.3122C66.5147 12.4033 65.5867 13.2528 64.3858 13.8605C63.1985 14.4544 61.827 14.7514 60.2713 14.7514L53.7619 14.7514L53.7619 0.248615ZM60.1075 11.9959C61.5404 11.9959 62.6799 11.5953 63.526 10.7942C64.3858 9.97928 64.8156 8.88121 64.8156 7.5C64.8156 6.11878 64.3858 5.02762 63.526 4.22652C62.6799 3.4116 61.5404 3.00414 60.1075 3.00414L57.078 3.00414L57.078 11.9959L60.1075 11.9959Z" fill="#FFB951"/>
<path d="M83.8153 12.058L83.8153 14.7514L72.7206 14.7514L72.7206 0.248616L83.5492 0.248616L83.5492 2.94199L76.0162 2.94199L76.0162 6.09116L82.669 6.09116L82.669 8.70165L76.0162 8.70165L76.0162 12.058L83.8153 12.058Z" fill="#FFB951"/>
<path d="M95.3183 15C93.8581 15 92.5344 14.6823 91.3471 14.047C90.1735 13.3978 89.2456 12.5069 88.5632 11.3743C87.8945 10.2279 87.5602 8.93646 87.5602 7.5C87.5602 6.06353 87.8945 4.779 88.5632 3.64641C89.2456 2.5 90.1735 1.60911 91.3471 0.973755C92.5344 0.324584 93.8649 -1.1424e-06 95.3388 -1.07798e-06C96.5806 -1.02369e-06 97.6997 0.220994 98.6959 0.662983C99.7057 1.10497 100.552 1.74033 101.234 2.56906L99.1053 4.55801C98.1364 3.42541 96.9354 2.85912 95.5025 2.85912C94.6155 2.85911 93.824 3.05939 93.128 3.45994C92.4321 3.84668 91.8862 4.39226 91.4904 5.09668C91.1083 5.8011 90.9173 6.60221 90.9173 7.5C90.9173 8.39779 91.1083 9.19889 91.4904 9.90331C91.8862 10.6077 92.4321 11.1602 93.128 11.5608C93.824 11.9475 94.6155 12.1409 95.5025 12.1409C96.9354 12.1409 98.1364 11.5677 99.1053 10.4213L101.234 12.4102C100.552 13.2528 99.7057 13.895 98.6959 14.337C97.686 14.779 96.5602 15 95.3183 15Z" fill="#FFB951"/>
<path d="M112.16 15C110.673 15 109.328 14.6754 108.127 14.0262C106.94 13.3771 106.005 12.4862 105.323 11.3536C104.654 10.2072 104.32 8.92265 104.32 7.5C104.32 6.07735 104.654 4.79972 105.323 3.66713C106.005 2.52072 106.94 1.62293 108.127 0.973756C109.328 0.324585 110.673 -4.07718e-07 112.16 -3.42697e-07C113.647 -2.77677e-07 114.985 0.324585 116.172 0.973757C117.359 1.62293 118.294 2.52072 118.977 3.66713C119.659 4.79972 120 6.07735 120 7.5C120 8.92265 119.659 10.2072 118.977 11.3536C118.294 12.4862 117.359 13.3771 116.172 14.0262C114.985 14.6754 113.647 15 112.16 15ZM112.16 12.1409C113.006 12.1409 113.77 11.9475 114.453 11.5608C115.135 11.1602 115.667 10.6077 116.049 9.90331C116.445 9.19889 116.643 8.39779 116.643 7.5C116.643 6.60221 116.445 5.8011 116.049 5.09668C115.667 4.39227 115.135 3.84668 114.453 3.45994C113.77 3.05939 113.006 2.85912 112.16 2.85912C111.314 2.85912 110.55 3.05939 109.867 3.45994C109.185 3.84668 108.646 4.39226 108.25 5.09668C107.868 5.8011 107.677 6.60221 107.677 7.5C107.677 8.39779 107.868 9.19889 108.25 9.90331C108.646 10.6077 109.185 11.1602 109.867 11.5608C110.55 11.9475 111.314 12.1409 112.16 12.1409Z" fill="#FFB951"/>
</svg>
